<svg enable-background="new 0 0 1024 1024" height="1024" image-rendering="optimizeSpeed" viewBox="0 0 1024 1024" width="1024" xmlns="http://www.w3.org/2000/svg"><path d="m969.65 351.3q-8.6-20.85-19.4-40.85c-4.05-7.55-8.35-15.05-12.9-22.4-19.55-31.7-43.4-61.65-71.55-89.8-92.15-92.15-203.45-138.25-333.8-138.25s-241.6 46.1-333.75 138.25-138.25 203.4-138.25 333.75 46.1 241.65 138.25 333.8 203.4 138.2 333.75 138.2 241.65-46.05 333.8-138.2c50.75-50.8 87.55-107.4 110.35-169.75 18.55-50.85 27.85-105.5 27.85-164.05 0-44.9-5.45-87.55-16.4-127.95-1.25-4.55-2.55-9.1-3.9-13.6-4.1-13.3-8.8-26.35-14.05-39.15z" fill-opacity=".098039"/><path d="m832.55 163.6c-1.3-1.15-2.6-2.3-3.65-3.3-30.7-27.35-65.2-50.35-103.65-69.5-.15-.05-.25-.1-.35-.15-3.1-1.55-6.1-3-8.65-4.15-4.9-2.35-9.25-4.35-13.6-6.25-1.1-.45-1.9-.85-2.75-1.2-9.45-4.1-18.9-7.85-27.9-11.2-2.35-.85-4.5-1.65-6.6-2.4-.35-.15-.7-.25-1.05-.4-18.55-6.45-37.2-11.75-55.85-15.9-7.9-1.7-15.8-3.25-23.5-4.55-.95-.2-1.95-.3-2.7-.45-11.65-1.85-23.2-3.25-34.75-4.2-69.8-5.45-139.2 5.55-208.85 33.05-10.2 4-20.15 8.25-29.6 12.7-13.7 6.35-26.7 13.15-39.2 20.45-35.1 20.35-66.45 44.5-94.1 72.5-.55.55-1.15 1.15-1.7 1.7-3.55 3.7-7.1 7.45-10.55 11.2-8.4 9.25-16.5 18.95-24.25 29.1-20.05 26.15-37.55 55.1-52.6 86.7-2.6 5.5-5.15 11.1-7.65 16.85-.25.6-.55 1.25-.8 1.85-.15.3-.25.6-.4.9-2.8 6.6-5.45 13.25-8.1 20-8.1 21.35-14.7 42.9-19.8 64.85-2.1 9.25-4 18.7-5.55 28.2-.7 4.4-1.4 9.15-2.1 13.9-.9 7.35-1.75 14.85-2.35 22.6-.1 1.45-.25 3.15-.4 4.95-1.3 19.3-1.3 38.7-.1 58.4.45 6.4 1 12.9 1.7 19.6.05.4.1.8.15 1.15.15 1.55.35 3.15.55 4.7 2 16.4 4.95 32.85 8.95 49.7 5.45 23.15 12.85 46.75 22.2 70.4 19.55 49.45 45.05 93.15 76.9 131.5 12.7 15.25 26.7 29.9 41.7 43.6 18.75 17.1 39.35 32.8 61.55 46.95 13.85 8.9 28.3 17.1 43.75 24.9 8.7 4.35 17.85 8.65 27.25 12.7 8.6 3.75 17.15 7.2 25.9 10.4 7 2.6 14 5.05 21.3 7.45 34.8 11.3 69.95 18.45 105.15 21.2 68.35 5.5 136.85-5.1 205.85-31.8.95-.4 2-.8 3.05-1.2 23.45-9.3 45.65-19.9 66.6-31.9 41.3-23.7 77.6-52.65 108.5-86.7 11.2-12.3 21.7-25.25 31.45-38.7q30.8-42.5 53.1-93.85c16.2-37.35 27.55-74.85 33.85-111.55 1.7-9.65 3-18.9 4-28.1.45-4.45.85-8.6 1.2-12.75 3.65-45.05.25-90.2-10.15-135.5-.05-.15-.05-.35-.1-.5-5.7-24.55-13.25-48.75-22.75-72.85-27.7-69.95-67.25-128.4-118.55-175.1z" fill="#393766"/><path d="m858.5 712.05v-400l-346.4-200-346.45 200v400l346.45 200.05zm-12.75-200c0 32.85-4.15 63.95-12.4 93.35-14.55 51.8-41.95 98.3-82.2 139.45-1.05 1.05-2.1 2.1-3.15 3.15-16.5 16.5-33.85 30.9-52.05 43.25-12.65 8.55-25.7 16.05-39.15 22.6-20.7 10.05-42.35 17.7-65 23-25.35 5.95-51.95 8.9-79.75 8.9-52.45 0-100.5-10.55-144.15-31.6-13.9-6.7-27.35-14.45-40.3-23.3-18.05-12.25-35.2-26.5-51.55-42.85-65.15-65.15-97.7-143.8-97.7-235.95s32.55-170.85 97.7-236 143.85-97.7 236-97.7 170.8 32.55 235.95 97.7c41.95 41.95 70.4 89.5 85.35 142.65q12.4 44.1 12.4 93.35z" fill="#fff" fill-opacity=".6"/><path d="m845.75 512.05q0-49.25-12.4-93.35c-14.95-53.15-43.4-100.7-85.35-142.65-65.15-65.15-143.8-97.7-235.95-97.7s-170.85 32.55-236 97.7-97.7 143.85-97.7 236 32.55 170.8 97.7 235.95c16.35 16.35 33.5 30.6 51.55 42.85 12.95 8.85 26.4 16.6 40.3 23.3 43.65 21.05 91.7 31.6 144.15 31.6 27.8 0 54.4-2.95 79.75-8.9 22.65-5.3 44.3-12.95 65-23 13.45-6.55 26.5-14.05 39.15-22.6 18.2-12.35 35.55-26.75 52.05-43.25l3.15-3.15c40.25-41.15 67.65-87.65 82.2-139.45 8.25-29.4 12.4-60.5 12.4-93.35z" fill="#fff"/><path d="m672.15 365.9c2.85 0 5.25 1 7.2 3 .4.4.75.8 1.05 1.2 30.55 7.25 62.75 16.25 96.55 27-134.8-110.8-267.75-163.35-398.9-157.65l-40.15 157.65c69.7-53.55 179.5-63.55 329.45-30 1.45-.8 3.05-1.2 4.8-1.2zm-275.2-102.65c84.6.2 170.05 25.6 256.35 76.15-116.65-23.9-209.25-21.25-277.85 8zm284.25 173.35c-1.2-.45-2.35-1-3.4-1.7 28.35 104.05-26.5 239.4-164.65 406.15 153.25-83.5 251.7-187.15 295.45-310.9zm98.35 102.15c-31.85 78.45-87.4 148.2-166.6 209.25 65.85-99.25 98-186.15 96.55-260.7zm-155-110.35c0-3.8.7-7.3 2.15-10.55-1.7-.5-3.6-1.1-5.5-1.6-.2.2-.4.4-.6.6-3 3-6.6 4.5-10.85 4.5s-7.85-1.5-10.85-4.5c-2.1-2.1-3.45-4.45-4.1-7.1-19.1-4.15-38.95-7.05-59.4-8.65-13-1.05-26.25-1.6-39.6-1.6-8.55 0-17.05.25-25.45.65-42.55 2.15-82.85 9.65-121 22.65.95 1.7 1.4 3.6 1.4 5.7 0 3.3-1.2 6.15-3.55 8.5s-5.2 3.55-8.55 3.55c-.65 0-1.25-.05-1.9-.15q3.65 16 8.5 31.5h.65c5.65 0 10.45 2 14.45 5.95 4 4 6 8.8 6 14.45s-2 10.45-6 14.45c-.6.6-1.2 1.15-1.85 1.7 21.95 52.4 54.5 100.15 97.75 143.4 6.7 6.7 13.5 13.1 20.45 19.35 7.65 6.9 15.5 13.45 23.45 19.7 3.9-3.4 7.75-6.95 11.45-10.4-.55-2-.85-4.15-.85-6.4 0-6.55 2.3-12.1 6.95-16.75 3.15-3.1 6.65-5.15 10.6-6.2-1.75-2.95-2.65-6.25-2.65-9.95 0-5.45 1.9-10.1 5.75-14 3.85-3.8 8.5-5.7 13.95-5.7s10.05 1.9 13.9 5.7c.3.3.6.6.85.9 25.05-31.3 45.15-64.85 60.2-100.4.85-2.05 1.75-4.1 2.6-6.2 8.8-21.8 15.75-44.3 20.9-67.6-4.3-1.15-8.15-3.45-11.5-6.8-5.15-5.15-7.75-11.4-7.75-18.7zm-15.7 16.8c2 3.35 2.7 6.9 2.1 10.7h.05c-3.55 22.8-9.5 44.65-17.9 65.45l-.05.1c-.05.05-.05.1-.05.15-.5 1.25-1 2.5-1.55 3.75l-.05.05v.05c-.05.05-.05.1-.05.1-14.8 34.95-36.7 66.9-65.65 95.95h-.05c-5.15 5.1-10.35 10.05-15.7 14.75-2.9 2.55-6.25 3.85-10.1 4-3.9.15-7.35-1-10.4-3.35l-.05-.05c-5.35-4.25-10.7-8.7-15.85-13.4-4.7-4.15-9.25-8.45-13.8-13-33.3-33.25-57.15-70.4-71.7-111.4l-.1-.25c-.15-.3-.2-.55-.25-.75-.1-.2-.15-.4-.2-.55-4.4-12.55-7.95-25.55-10.55-38.85v-.05c-.75-3.85-.2-7.5 1.7-10.95 1.85-3.35 4.65-5.8 8.3-7.2 28.6-10.95 59.15-17.3 91.6-19.05.3-.05.55-.05.85-.1 5.65-.25 11.4-.4 17.1-.4 9.05 0 17.95.35 26.75 1.1 27.1 2.1 52.8 7.55 77.2 16.35 3.6 1.25 6.4 3.55 8.35 6.85zm-267.55 333.45 148.95-65.45c-104.7-26.9-194.85-142.2-270.45-345.9-4.25 174.45 36.25 311.6 121.5 411.35zm7.15-29.45c-52-66.75-84.65-149.7-97.95-248.85 53.05 106.6 112.2 177.9 177.45 213.95z" fill="#80bcfa"/><path d="m396.95 263.25-21.5 84.15c68.6-29.25 161.2-31.9 277.85-8-86.3-50.55-171.75-75.95-256.35-76.15z" fill="#09f"/><path d="m679.35 368.9c-1.95-2-4.35-3-7.2-3-1.75 0-3.35.4-4.8 1.2-.85.45-1.7 1.05-2.45 1.8-1.95 2-2.95 4.4-2.95 7.2 0 2.85 1 5.25 2.95 7.25 2.05 2 4.45 3 7.25 3 2.85 0 5.25-1 7.2-3 2.05-2 3.05-4.4 3.05-7.25 0-2.25-.65-4.25-2-6-.3-.4-.65-.8-1.05-1.2zm.25 23.75c0 1 .35 1.85 1.05 2.55.75.75 1.65 1.15 2.6 1.15 1 0 1.85-.4 2.5-1.15.75-.7 1.15-1.55 1.15-2.55 0-.95-.4-1.8-1.15-2.5-.65-.75-1.5-1.1-2.5-1.1-.95 0-1.85.35-2.6 1.1-.7.7-1.05 1.55-1.05 2.5zm44.65 27c1.65 0 3.1-.6 4.3-1.8 1.15-1.15 1.75-2.6 1.75-4.25s-.6-3.1-1.75-4.3c-1.2-1.15-2.65-1.7-4.3-1.7s-3.05.55-4.25 1.7c-1.2 1.2-1.8 2.65-1.8 4.3s.6 3.1 1.8 4.25c1.2 1.2 2.6 1.8 4.25 1.8zm-20.5 1.1c0-4.65-1.65-8.6-4.95-11.9-3.25-3.25-7.2-4.9-11.85-4.9s-8.6 1.65-11.9 4.9c-.4.45-.8.85-1.15 1.3-.2-2-1-3.7-2.45-5.1-1.6-1.65-3.6-2.5-5.95-2.5-1.65 0-3.1.45-4.4 1.3-3.1-1.25-6.45-1.9-10.05-1.9-7.35 0-13.6 2.55-18.75 7.7-2.45 2.45-4.35 5.2-5.6 8.2-1.45 3.25-2.15 6.75-2.15 10.55 0 7.3 2.6 13.55 7.75 18.7 3.35 3.35 7.2 5.65 11.5 6.8 2.25.65 4.7.95 7.25.95 7.35 0 13.55-2.6 18.7-7.75 3.7-3.75 6.1-8 7.15-12.85.3.25.6.45.9.65 1.05.7 2.2 1.25 3.4 1.7 1.8.65 3.7.95 5.75.95 4.65 0 8.6-1.65 11.85-4.95 3.3-3.25 4.95-7.2 4.95-11.85zm-83.15-25.6c-3-3-6.6-4.5-10.85-4.5s-7.85 1.5-10.85 4.5-4.5 6.6-4.5 10.85c0 1.3.15 2.55.4 3.75.65 2.65 2 5 4.1 7.1 3 3 6.6 4.5 10.85 4.5s7.85-1.5 10.85-4.5c.2-.2.4-.4.6-.6 2.6-2.85 3.9-6.3 3.9-10.25 0-4.25-1.5-7.85-4.5-10.85zm-320.65 16.95c-2.45-2.45-5.45-3.7-8.9-3.7-3.5 0-6.5 1.25-9 3.7-2.45 2.5-3.7 5.5-3.7 8.95s1.25 6.45 3.7 8.9c2.5 2.5 5.5 3.75 9 3.75h.35c-4.4 4.85-6.6 10.6-6.6 17.25 0 7.1 2.5 13.15 7.5 18.2 5.05 5.05 11.1 7.55 18.25 7.55 7.1 0 13.15-2.5 18.15-7.55 5.05-5.05 7.55-11.1 7.55-18.2 0-4.2-.85-8-2.6-11.45.95.45 2 .75 3.1.9.65.1 1.25.15 1.9.15 3.35 0 6.2-1.2 8.55-3.55s3.55-5.2 3.55-8.5c0-2.1-.45-4-1.4-5.7-.55-1.05-1.3-2-2.15-2.85-2.35-2.35-5.2-3.55-8.55-3.55s-6.15 1.2-8.5 3.55-3.55 5.2-3.55 8.55c0 .85.1 1.7.25 2.55-4.65-3.9-10.1-5.85-16.3-5.85-2.85 0-5.55.4-8.05 1.25.8-1.65 1.2-3.45 1.2-5.4 0-3.45-1.25-6.45-3.75-8.95zm31.5 65.75c-4 4-6 8.8-6 14.45s2 10.45 6 14.45 8.8 6 14.45 6c4.75 0 8.95-1.45 12.6-4.3.65-.55 1.25-1.1 1.85-1.7 4-4 6-8.8 6-14.45s-2-10.45-6-14.45c-4-3.95-8.8-5.95-14.45-5.95-.25 0-.45 0-.65 0-5.35.15-9.95 2.15-13.8 5.95zm242.9 159.2c0-2.1-.75-3.9-2.25-5.4-1.45-1.45-3.25-2.2-5.4-2.2-1.65 0-3.2.5-4.55 1.45-.6-.95-1.3-1.9-2.05-2.8-.25-.3-.55-.6-.85-.9-3.85-3.8-8.45-5.7-13.9-5.7s-10.1 1.9-13.95 5.7c-3.85 3.9-5.75 8.55-5.75 14 0 3.7.9 7 2.65 9.95-3.95 1.05-7.45 3.1-10.6 6.2-4.65 4.65-6.95 10.2-6.95 16.75 0 2.25.3 4.4.85 6.4 1.05 3.85 3.05 7.35 6.1 10.4 4.65 4.65 10.25 6.95 16.8 6.95s12.1-2.3 16.75-6.95c3.95-3.95 6.2-8.55 6.8-13.85.15.2.3.4.55.6 1.45 1.5 3.25 2.25 5.3 2.25s3.85-.75 5.3-2.25c1.45-1.45 2.2-3.2 2.2-5.25s-.75-3.85-2.2-5.3-3.25-2.2-5.3-2.2-3.85.75-5.3 2.2c-.4.4-.75.85-1.05 1.3-.75-3.3-2.25-6.3-4.45-9.05 2.25-.95 4.3-2.4 6.15-4.25 3.05-3.05 4.9-6.55 5.55-10.6.6.15 1.25.2 1.9.2 2.15 0 3.95-.75 5.4-2.25 1.5-1.45 2.25-3.25 2.25-5.4zm140.85-197.9c-.65-.7-1.45-1.05-2.4-1.05s-1.75.35-2.4 1.05c-.65.65-1 1.45-1 2.4s.35 1.75 1 2.4 1.45 1 2.4 1 1.75-.35 2.4-1c.7-.65 1.05-1.45 1.05-2.4s-.35-1.75-1.05-2.4zm-43.55 26.6c0-3.05-1.05-5.6-3.2-7.75-2.1-2.15-4.65-3.2-7.7-3.2-3 0-5.55 1.05-7.7 3.2-2.1 2.15-3.15 4.7-3.15 7.75 0 3 1.05 5.55 3.15 7.6 2.15 2.15 4.7 3.25 7.7 3.25 3.05 0 5.6-1.1 7.7-3.25 2.15-2.05 3.2-4.6 3.2-7.6zm-11.3 24.65c0-1.35-.45-2.5-1.4-3.45s-2.1-1.4-3.45-1.4-2.45.45-3.4 1.4-1.4 2.1-1.4 3.45.45 2.45 1.4 3.4 2.05 1.4 3.4 1.4 2.5-.45 3.45-1.4 1.4-2.05 1.4-3.4zm-21.4-113.8c-.75.75-1.15 1.7-1.15 2.8 0 1.15.4 2.1 1.15 2.85.85.8 1.8 1.2 2.9 1.2 1.05 0 2-.4 2.8-1.2.8-.75 1.2-1.7 1.2-2.85 0-1.1-.4-2.05-1.2-2.8-.8-.8-1.75-1.2-2.8-1.2-1.1 0-2.05.4-2.9 1.2zm-342.75-37.25c-1.15 1.2-1.75 2.6-1.75 4.25s.6 3.1 1.75 4.3c1.15 1.15 2.6 1.75 4.25 1.75s3.1-.6 4.3-1.75c1.15-1.2 1.75-2.65 1.75-4.3s-.6-3.05-1.75-4.25c-1.2-1.15-2.65-1.75-4.3-1.75s-3.1.6-4.25 1.75zm-21.9 48.85c-1.6 1.6-2.4 3.55-2.4 5.8s.8 4.15 2.4 5.75c1.6 1.55 3.5 2.35 5.75 2.35s4.2-.8 5.75-2.35c1.55-1.6 2.35-3.5 2.35-5.75s-.8-4.2-2.35-5.8c-1.55-1.55-3.5-2.35-5.75-2.35s-4.15.8-5.75 2.35zm1.45-23.45c-.95.95-1.4 2.1-1.4 3.4 0 1.35.45 2.45 1.4 3.4s2.05 1.4 3.4 1.4 2.5-.45 3.45-1.4 1.4-2.05 1.4-3.4c0-1.3-.45-2.45-1.4-3.4s-2.1-1.45-3.45-1.45-2.45.5-3.4 1.45zm23.7 18.05c-2.25 2.3-3.4 5.05-3.4 8.25 0 3.25 1.15 6 3.4 8.3 2.3 2.25 5.05 3.4 8.25 3.4s5.95-1.15 8.25-3.4c2.25-2.3 3.4-5.05 3.4-8.3 0-3.2-1.15-5.95-3.4-8.25-2.3-2.25-5.05-3.4-8.25-3.4s-5.95 1.15-8.25 3.4zm15.8-8.3c.35-.35.5-.8.5-1.3 0-.55-.15-.95-.5-1.3s-.8-.5-1.35-.5c-.5 0-.9.15-1.25.5s-.5.75-.5 1.3c0 .5.15.95.5 1.3s.75.5 1.25.5c.55 0 1-.15 1.35-.5zm-4.05 40.4c.5.45 1.1.7 1.75.7s1.2-.25 1.65-.7.7-1.05.7-1.7-.25-1.25-.7-1.75c-.45-.45-1-.7-1.65-.7s-1.25.25-1.75.7c-.45.5-.65 1.1-.65 1.75s.2 1.25.65 1.7zm-35.7 28.85c-.95 0-1.8.35-2.5 1.05-.75.75-1.1 1.6-1.1 2.6 0 .95.35 1.8 1.1 2.5.7.75 1.55 1.1 2.5 1.1 1 0 1.85-.35 2.6-1.1.7-.7 1.05-1.55 1.05-2.5 0-1-.35-1.85-1.05-2.6-.75-.7-1.6-1.05-2.6-1.05zm43.05 49.1c0-3.15-1.1-5.8-3.25-8-2.25-2.2-4.9-3.3-8-3.3-3.15 0-5.8 1.1-7.95 3.3-2.2 2.2-3.3 4.85-3.3 8 0 3.05 1.1 5.7 3.3 7.9 2.15 2.25 4.8 3.35 7.95 3.35 3.1 0 5.75-1.1 8-3.35 2.15-2.2 3.25-4.85 3.25-7.9zm.8 20.85c-.85 0-1.65.3-2.3.95-.6.65-.9 1.4-.9 2.3 0 .85.3 1.6.9 2.25.65.65 1.45.95 2.3.95s1.6-.3 2.25-.95 1-1.4 1-2.25c0-.9-.35-1.65-1-2.3s-1.4-.95-2.25-.95zm21.7-110.95c-1.1 0-2.05.4-2.85 1.15-.75.8-1.15 1.75-1.15 2.9 0 1.05.4 2 1.15 2.8.8.75 1.75 1.15 2.85 1.15s2.05-.4 2.85-1.15c.8-.8 1.2-1.75 1.2-2.8 0-1.15-.4-2.1-1.2-2.9-.8-.75-1.75-1.15-2.85-1.15zm253.5 254.7c-1.45-1.45-3.25-2.2-5.4-2.2-2.1 0-3.9.75-5.4 2.2-1.45 1.5-2.2 3.3-2.2 5.45 0 2.1.75 3.9 2.2 5.4 1.5 1.5 3.3 2.25 5.4 2.25 2.15 0 3.95-.75 5.4-2.25 1.5-1.5 2.25-3.3 2.25-5.4 0-2.15-.75-3.95-2.25-5.45zm-42 50.95c.6 2.55 1.9 4.8 3.85 6.75 2.9 2.9 6.4 4.35 10.45 4.35s7.55-1.45 10.4-4.35c2.9-2.85 4.35-6.3 4.35-10.4 0-4.05-1.45-7.55-4.35-10.45-2.85-2.85-6.35-4.3-10.4-4.3s-7.55 1.45-10.45 4.3c-1.95 1.95-3.2 4.15-3.8 6.65-.35-.5-.7-.95-1.15-1.4-1.4-1.45-3.1-2.15-5.1-2.15-1.95 0-3.65.7-5.05 2.15-1.4 1.4-2.1 3.1-2.1 5.1 0 1.95.7 3.65 2.1 5.05s3.1 2.1 5.05 2.1c2 0 3.7-.7 5.1-2.1.45-.4.8-.85 1.1-1.3zm-20.85 19.2c0 2.65.95 4.95 2.8 6.8 1.9 1.95 4.15 2.9 6.8 2.9s4.95-.95 6.8-2.9c1.9-1.85 2.85-4.15 2.85-6.8s-.95-4.9-2.85-6.8c-1.85-1.9-4.15-2.85-6.8-2.85s-4.9.95-6.8 2.85c-1.85 1.9-2.8 4.15-2.8 6.8zm29.45 10.35c.9.9 2 1.35 3.3 1.35s2.4-.45 3.25-1.35c.9-.9 1.35-2 1.35-3.3 0-1.25-.45-2.35-1.35-3.3-.85-.85-1.95-1.3-3.25-1.3s-2.4.45-3.3 1.3c-.9.95-1.35 2.05-1.35 3.3 0 1.3.45 2.4 1.35 3.3zm-44.85-27.05c2.1-2.1 3.15-4.65 3.15-7.6 0-3-1.05-5.55-3.15-7.6-2.1-2.1-4.65-3.15-7.6-3.15s-5.5 1.05-7.6 3.15c-2.1 2.05-3.15 4.6-3.15 7.6 0 2.95 1.05 5.5 3.15 7.6 2.1 2.05 4.65 3.1 7.6 3.1s5.5-1.05 7.6-3.1zm7.8 14.4c.75-.75 1.1-1.65 1.1-2.7s-.35-1.9-1.1-2.65-1.65-1.15-2.7-1.15-1.9.4-2.65 1.15-1.15 1.6-1.15 2.65.4 1.95 1.15 2.7 1.6 1.15 2.65 1.15 1.95-.4 2.7-1.15z" fill="#8abef6"/><g fill="#09f"><path d="m779.55 538.75-70.05-51.45c1.45 74.55-30.7 161.45-96.55 260.7 79.2-61.05 134.75-130.8 166.6-209.25z"/><path d="m608.85 445.2h-.05c-1.95-3.3-4.75-5.6-8.35-6.85-24.4-8.8-50.1-14.25-77.2-16.35-8.8-.75-17.7-1.1-26.75-1.1-5.7 0-11.45.15-17.1.4-.3.05-.55.05-.85.1-32.45 1.75-63 8.1-91.6 19.05-3.65 1.4-6.45 3.85-8.3 7.2-1.9 3.45-2.45 7.1-1.7 10.95v.05c2.6 13.3 6.15 26.3 10.55 38.85.05.15.1.35.2.55.05.2.1.45.25.75l.1.25c14.55 41 38.4 78.15 71.7 111.4 4.55 4.55 9.1 8.85 13.8 13 5.15 4.7 10.5 9.15 15.85 13.4l.05.05c3.05 2.35 6.5 3.5 10.4 3.35 3.85-.15 7.2-1.45 10.1-4 5.35-4.7 10.55-9.65 15.7-14.75h.05c28.95-29.05 50.85-61 65.65-95.95 0 0 0-.05.05-.1v-.05l.05-.05c.55-1.25 1.05-2.5 1.55-3.75 0-.05 0-.1.05-.15l.05-.1c8.4-20.8 14.35-42.65 17.9-65.45h-.05c.6-3.8-.1-7.35-2.1-10.7z"/><path d="m348.45 749.2 79.5-34.9c-65.25-36.05-124.4-107.35-177.45-213.95 13.3 99.15 45.95 182.1 97.95 248.85z"/></g></svg>